<?xml version="1.0" standalone="no"?>
<!DOCTYPE svg PUBLIC "-//W3C//DTD SVG 20010904//EN"
 "http://www.w3.org/TR/2001/REC-SVG-20010904/DTD/svg10.dtd">
<svg version="1.0" xmlns="http://www.w3.org/2000/svg"
 width="420.000000pt" height="420.000000pt" viewBox="0 0 420.000000 420.000000"
 preserveAspectRatio="xMidYMid meet">

<g transform="translate(0.000000,420.000000) scale(0.100000,-0.100000)"
fill="#000000" stroke="none">
<path d="M1106 4174 c-325 -59 -628 -247 -830 -514 -125 -166 -216 -374 -251
-574 -23 -132 -23 -1850 0 -1982 84 -480 431 -883 896 -1038 199 -67 184 -66
1184 -66 1000 0 985 -1 1184 66 465 155 812 558 896 1038 23 132 23 1850 0
1982 -84 480 -431 883 -896 1038 -199 67 -183 66 -1193 65 -745 -1 -926 -3
-990 -15z m1913 -189 c145 -25 232 -54 356 -115 336 -167 550 -465 620 -861
22 -124 22 -1704 0 -1828 -25 -145 -54 -232 -115 -356 -167 -336 -465 -550
-861 -620 -124 -22 -1704 -22 -1828 0 -145 25 -232 54 -356 115 -336 167 -550
465 -620 861 -22 124 -22 1704 0 1828 25 145 54 232 115 356 165 333 462 548
853 620 112 20 1720 21 1836 0z"/>
<path d="M1010 2095 l0 -1495 1095 0 1095 0 0 314 c0 172 3 334 6 360 l7 47
-232 233 -233 233 47 63 c63 86 140 246 170 355 49 175 49 410 -1 582 -116
409 -443 709 -857 788 -64 12 -176 15 -588 15 l-509 0 0 -1495z m990 1297
c440 -60 753 -377 799 -807 30 -280 -67 -539 -278 -743 l-55 -53 270 -270 269
-269 3 -230 4 -230 -906 0 -906 0 0 1310 0 1311 363 -4 c199 -3 396 -9 437
-15z"/>
<path d="M1791 2859 c-18 -6 -44 -17 -57 -26 l-24 -15 0 -325 0 -324 48 -22
c69 -32 226 -32 296 1 149 68 232 207 224 371 -5 97 -38 172 -108 241 -74 74
-143 103 -255 107 -49 1 -105 -2 -124 -8z m199 -209 c63 -32 85 -73 85 -155 0
-57 -4 -76 -23 -103 -25 -35 -88 -72 -122 -72 -19 0 -20 6 -20 175 0 169 1
175 20 175 12 0 38 -9 60 -20z"/>
<path d="M1710 1403 l0 -203 380 0 c209 0 380 3 380 8 0 4 -87 94 -194 201
l-194 194 -186 1 -186 1 0 -202z"/>
</g>
</svg>
